<mxfile host="app.diagrams.net" modified="2023-09-29T08:29:37.473Z" agent="Mozilla/5.0 (X11; Linux x86_64) AppleWebKit/537.36 (KHTML, like Gecko) Chrome/113.0.0.0 Safari/537.36" version="22.0.0" etag="plC1mkS0Cw2Eo64t2tOk" type="github">
  <diagram name="Page-1" id="VEskmhfB0ZmCoTkxNrA-">
    <mxGraphModel>
      <root>
        <mxCell id="0" />
        <mxCell id="1" parent="0" />
      </root>
    </mxGraphModel>
  </diagram>
</mxfile>
